<svg width="19" height="33" viewBox="0 0 19 33" fill="none" xmlns="http://www.w3.org/2000/svg">
<path d="M15.3084 1.558C14.9161 1.19242 13.3283 0.0269432 9.7881 0.0113202C9.7881 0.0113202 5.61464 -0.241773 3.58197 1.64549C2.45134 2.7891 2.05284 4.46701 2.00959 6.54487C1.96634 8.62274 1.91382 12.516 5.62391 13.5721H5.627L5.62391 15.1844C5.62391 15.1844 5.5992 15.8375 6.0255 15.9687C6.5383 16.1312 6.84104 15.6344 7.33222 15.1C7.60097 14.8063 7.97167 14.3751 8.25279 14.0471C10.7921 14.2627 12.7413 13.769 12.9638 13.6971C13.4766 13.5284 16.3773 13.1534 16.8468 9.26016C17.3349 5.24191 16.6121 2.70473 15.3084 1.558ZM15.7378 8.96644C15.3393 12.216 12.9885 12.4223 12.556 12.5629C12.3706 12.6222 10.6562 13.0534 8.50301 12.9128C8.50301 12.9128 6.89665 14.872 6.3962 15.3813C6.23247 15.5469 6.0533 15.5312 6.05639 15.2032C6.05639 14.9876 6.06875 12.5254 6.06875 12.5254C6.06566 12.5254 6.06566 12.5254 6.06875 12.5254C2.92398 11.6442 3.10933 8.32903 3.14331 6.59487C3.17729 4.86071 3.50165 3.43901 4.45929 2.48288C6.17996 0.904958 9.72323 1.1393 9.72323 1.1393C12.7166 1.1518 14.15 2.06419 14.4836 2.3704C15.5865 3.32653 16.1487 5.61374 15.7378 8.96644ZM11.4439 6.44176C11.4563 6.71048 11.0577 6.72923 11.0454 6.46051C11.0114 5.7731 10.6932 5.43876 10.0383 5.40127C9.77266 5.38564 9.79737 4.98257 10.0599 4.99819C10.9218 5.04506 11.4006 5.545 11.4439 6.44176ZM12.071 6.79484C12.1019 5.47001 11.2833 4.43264 9.72941 4.31703C9.46683 4.29828 9.49463 3.89521 9.75721 3.91395C11.5489 4.04519 12.5035 5.29191 12.4695 6.80422C12.4664 7.07293 12.0648 7.06043 12.071 6.79484ZM13.5229 7.21354C13.526 7.48226 13.1244 7.48538 13.1244 7.21666C13.1059 4.67011 11.4284 3.28278 9.39269 3.26716C9.13011 3.26404 9.13011 2.86409 9.39269 2.86409C11.6694 2.87971 13.5013 4.47013 13.5229 7.21354ZM13.1738 10.2788V10.285C12.8402 10.8787 12.2162 11.5349 11.5736 11.3255L11.5675 11.3161C10.9156 11.1318 9.38033 10.3319 8.41034 9.55075C7.90989 9.1508 7.45269 8.67898 7.10053 8.22591C6.78235 7.82284 6.46107 7.34477 6.14907 6.76985C5.49108 5.56687 5.34588 5.02944 5.34588 5.02944C5.13891 4.37952 5.78455 3.74835 6.37458 3.41089H6.38075C6.66496 3.26091 6.9368 3.31091 7.11906 3.53275C7.11906 3.53275 7.50212 3.99519 7.66585 4.22329C7.82031 4.43576 8.02728 4.77635 8.1354 4.96695C8.32384 5.30753 8.20645 5.65436 8.0211 5.79809L7.6504 6.09806C7.46196 6.25116 7.48668 6.5355 7.48668 6.5355C7.48668 6.5355 8.03655 8.63836 10.0908 9.16954C10.0908 9.16954 10.372 9.19454 10.5233 9.00394L10.8199 8.62899C10.962 8.44151 11.3049 8.32278 11.6416 8.51338C12.0957 8.77272 12.6734 9.17579 13.0564 9.54137C13.2727 9.71947 13.3221 9.99132 13.1738 10.2788Z" fill="#7BA4B1"/>
<path d="M15.3084 18.558C14.9161 18.1924 13.3283 17.0269 9.7881 17.0113C9.7881 17.0113 5.61464 16.7582 3.58197 18.6455C2.45134 19.7891 2.05284 21.467 2.00959 23.5449C1.96634 25.6227 1.91382 29.516 5.62391 30.5721H5.627L5.62391 32.1844C5.62391 32.1844 5.5992 32.8375 6.0255 32.9687C6.5383 33.1312 6.84104 32.6344 7.33222 32.1C7.60097 31.8063 7.97167 31.3751 8.25279 31.0471C10.7921 31.2627 12.7413 30.769 12.9638 30.6971C13.4766 30.5284 16.3773 30.1534 16.8468 26.2602C17.3349 22.2419 16.6121 19.7047 15.3084 18.558ZM15.7378 25.9664C15.3393 29.216 12.9885 29.4223 12.556 29.5629C12.3706 29.6222 10.6562 30.0534 8.50301 29.9128C8.50301 29.9128 6.89665 31.872 6.3962 32.3813C6.23247 32.5469 6.0533 32.5312 6.05639 32.2032C6.05639 31.9876 6.06875 29.5254 6.06875 29.5254C6.06566 29.5254 6.06566 29.5254 6.06875 29.5254C2.92398 28.6442 3.10933 25.329 3.14331 23.5949C3.17729 21.8607 3.50165 20.439 4.45929 19.4829C6.17996 17.905 9.72323 18.1393 9.72323 18.1393C12.7166 18.1518 14.15 19.0642 14.4836 19.3704C15.5865 20.3265 16.1487 22.6137 15.7378 25.9664ZM11.4439 23.4418C11.4563 23.7105 11.0577 23.7292 11.0454 23.4605C11.0114 22.7731 10.6932 22.4388 10.0383 22.4013C9.77266 22.3856 9.79737 21.9826 10.0599 21.9982C10.9218 22.0451 11.4006 22.545 11.4439 23.4418ZM12.071 23.7948C12.1019 22.47 11.2833 21.4326 9.72941 21.317C9.46683 21.2983 9.49463 20.8952 9.75721 20.914C11.5489 21.0452 12.5035 22.2919 12.4695 23.8042C12.4664 24.0729 12.0648 24.0604 12.071 23.7948ZM13.5229 24.2135C13.526 24.4823 13.1244 24.4854 13.1244 24.2167C13.1059 21.6701 11.4284 20.2828 9.39269 20.2672C9.13011 20.264 9.13011 19.8641 9.39269 19.8641C11.6694 19.8797 13.5013 21.4701 13.5229 24.2135ZM13.1738 27.2788V27.285C12.8402 27.8787 12.2162 28.5349 11.5736 28.3255L11.5675 28.3161C10.9156 28.1318 9.38033 27.3319 8.41034 26.5507C7.90989 26.1508 7.45269 25.679 7.10053 25.2259C6.78235 24.8228 6.46107 24.3448 6.14907 23.7698C5.49108 22.5669 5.34588 22.0294 5.34588 22.0294C5.13891 21.3795 5.78455 20.7484 6.37458 20.4109H6.38075C6.66496 20.2609 6.9368 20.3109 7.11906 20.5328C7.11906 20.5328 7.50212 20.9952 7.66585 21.2233C7.82031 21.4358 8.02728 21.7763 8.1354 21.9669C8.32384 22.3075 8.20645 22.6544 8.0211 22.7981L7.6504 23.0981C7.46196 23.2512 7.48668 23.5355 7.48668 23.5355C7.48668 23.5355 8.03655 25.6384 10.0908 26.1695C10.0908 26.1695 10.372 26.1945 10.5233 26.0039L10.8199 25.629C10.962 25.4415 11.3049 25.3228 11.6416 25.5134C12.0957 25.7727 12.6734 26.1758 13.0564 26.5414C13.2727 26.7195 13.3221 26.9913 13.1738 27.2788Z" fill="white"/>
</svg>
