<svg width="486" height="512" viewBox="0 0 486 512" fill="none" xmlns="http://www.w3.org/2000/svg">
<path d="M431 49.9C418.3 38.2 366.9 0.900011 252.3 0.400011C252.3 0.400011 117.2 -7.69999 51.4001 52.7C14.8001 89.3 1.90008 143 0.50008 209.5C-0.89992 276 -2.59992 400.6 117.5 434.4H117.6L117.5 486C117.5 486 116.7 506.9 130.5 511.1C147.1 516.3 156.9 500.4 172.8 483.3C181.5 473.9 193.5 460.1 202.6 449.6C284.8 456.5 347.9 440.7 355.1 438.4C371.7 433 465.6 421 480.8 296.4C496.6 167.8 473.2 86.6 431 49.9ZM444.9 287C432 391 355.9 397.6 341.9 402.1C335.9 404 280.4 417.8 210.7 413.3C210.7 413.3 158.7 476 142.5 492.3C137.2 497.6 131.4 497.1 131.5 486.6C131.5 479.7 131.9 400.9 131.9 400.9C131.8 400.9 131.8 400.9 131.9 400.9C30.1001 372.7 36.1001 266.6 37.2001 211.1C38.3001 155.6 48.8001 110.1 79.8001 79.5C135.5 29 250.2 36.5 250.2 36.5C347.1 36.9 393.5 66.1 404.3 75.9C440 106.5 458.2 179.7 444.9 287ZM305.9 206.2C306.3 214.8 293.4 215.4 293 206.8C291.9 184.8 281.6 174.1 260.4 172.9C251.8 172.4 252.6 159.5 261.1 160C289 161.5 304.5 177.5 305.9 206.2ZM326.2 217.5C327.2 175.1 300.7 141.9 250.4 138.2C241.9 137.6 242.8 124.7 251.3 125.3C309.3 129.5 340.2 169.4 339.1 217.8C339 226.4 326 226 326.2 217.5ZM373.2 230.9C373.3 239.5 360.3 239.6 360.3 231C359.7 149.5 305.4 105.1 239.5 104.6C231 104.5 231 91.7 239.5 91.7C313.2 92.2 372.5 143.1 373.2 230.9ZM361.9 329V329.2C351.1 348.2 330.9 369.2 310.1 362.5L309.9 362.2C288.8 356.3 239.1 330.7 207.7 305.7C191.5 292.9 176.7 277.8 165.3 263.3C155 250.4 144.6 235.1 134.5 216.7C113.2 178.2 108.5 161 108.5 161C101.8 140.2 122.7 120 141.8 109.2H142C151.2 104.4 160 106 165.9 113.1C165.9 113.1 178.3 127.9 183.6 135.2C188.6 142 195.3 152.9 198.8 159C204.9 169.9 201.1 181 195.1 185.6L183.1 195.2C177 200.1 177.8 209.2 177.8 209.2C177.8 209.2 195.6 276.5 262.1 293.5C262.1 293.5 271.2 294.3 276.1 288.2L285.7 276.2C290.3 270.2 301.4 266.4 312.3 272.5C327 280.8 345.7 293.7 358.1 305.4C365.1 311.1 366.7 319.8 361.9 329Z" fill="#003546"/>
</svg>
